<svg xmlns="http://www.w3.org/2000/svg" xmlns:xlink="http://www.w3.org/1999/xlink" width="500" zoomAndPan="magnify" viewBox="0 0 375 374.999991" height="500" preserveAspectRatio="xMidYMid meet" version="1.0"><defs><g/><clipPath id="9e5f240de1"><path d="M 11.382812 11.382812 L 363.617188 11.382812 L 363.617188 363.617188 L 11.382812 363.617188 Z M 11.382812 11.382812 " clip-rule="nonzero"/></clipPath><clipPath id="c6e6c22e57"><path d="M 28.632812 11.382812 L 346.367188 11.382812 C 350.941406 11.382812 355.328125 13.199219 358.566406 16.433594 C 361.800781 19.671875 363.617188 24.058594 363.617188 28.632812 L 363.617188 346.367188 C 363.617188 350.941406 361.800781 355.328125 358.566406 358.566406 C 355.328125 361.800781 350.941406 363.617188 346.367188 363.617188 L 28.632812 363.617188 C 24.058594 363.617188 19.671875 361.800781 16.433594 358.566406 C 13.199219 355.328125 11.382812 350.941406 11.382812 346.367188 L 11.382812 28.632812 C 11.382812 24.058594 13.199219 19.671875 16.433594 16.433594 C 19.671875 13.199219 24.058594 11.382812 28.632812 11.382812 Z M 28.632812 11.382812 " clip-rule="nonzero"/></clipPath></defs><g clip-path="url(#9e5f240de1)"><g clip-path="url(#c6e6c22e57)"><path fill="#000000" d="M 11.382812 11.382812 L 363.617188 11.382812 L 363.617188 363.617188 L 11.382812 363.617188 Z M 11.382812 11.382812 " fill-opacity="1" fill-rule="nonzero"/></g></g><g fill="#ffffff" fill-opacity="1"><g transform="translate(48.058595, 311.99998)"><g><path d="M 257.875 -41.578125 C 257.875 -32.898438 256.332031 -26.457031 253.25 -22.25 C 250.175781 -18.050781 245.28125 -13.992188 238.5625 -10.078125 C 234.644531 -7.835938 229.742188 -5.664062 223.859375 -3.5625 C 217.984375 -1.46875 211.546875 0.347656 204.546875 1.890625 C 197.546875 3.429688 190.191406 4.617188 182.484375 5.453125 C 174.785156 6.296875 167.15625 6.71875 159.59375 6.71875 C 139.4375 6.71875 120.535156 3.988281 102.890625 -1.46875 C 85.253906 -6.925781 69.925781 -15.1875 56.90625 -26.25 C 43.882812 -37.3125 33.59375 -51.101562 26.03125 -67.625 C 18.476562 -84.144531 14.703125 -103.320312 14.703125 -125.15625 C 14.703125 -148.113281 18.832031 -168.132812 27.09375 -185.21875 C 35.351562 -202.300781 46.269531 -216.507812 59.84375 -227.84375 C 73.425781 -239.1875 88.96875 -247.65625 106.46875 -253.25 C 123.96875 -258.851562 141.957031 -261.65625 160.4375 -261.65625 C 187.039062 -261.65625 208.109375 -257.382812 223.640625 -248.84375 C 239.179688 -240.3125 246.953125 -229.179688 246.953125 -215.453125 C 246.953125 -208.179688 245.132812 -201.882812 241.5 -196.5625 C 237.863281 -191.238281 233.664062 -187.035156 228.90625 -183.953125 C 221.90625 -188.160156 213.15625 -192.289062 202.65625 -196.34375 C 192.15625 -200.40625 180.320312 -202.4375 167.15625 -202.4375 C 143.632812 -202.4375 124.941406 -195.71875 111.078125 -182.28125 C 97.222656 -168.84375 90.296875 -150.222656 90.296875 -126.421875 C 90.296875 -113.535156 92.1875 -102.398438 95.96875 -93.015625 C 99.75 -83.640625 104.859375 -75.941406 111.296875 -69.921875 C 117.734375 -63.910156 125.148438 -59.429688 133.546875 -56.484375 C 141.953125 -53.546875 150.914062 -52.078125 160.4375 -52.078125 C 166.601562 -52.078125 172.0625 -52.632812 176.8125 -53.75 C 181.570312 -54.875 185.210938 -56.140625 187.734375 -57.546875 L 187.734375 -97.015625 L 142.796875 -97.015625 C 141.117188 -100.097656 139.507812 -104.160156 137.96875 -109.203125 C 136.425781 -114.242188 135.65625 -119.5625 135.65625 -125.15625 C 135.65625 -135.238281 137.960938 -142.519531 142.578125 -147 C 147.203125 -151.476562 153.15625 -153.71875 160.4375 -153.71875 L 231.421875 -153.71875 C 239.816406 -153.71875 246.320312 -151.40625 250.9375 -146.78125 C 255.5625 -142.164062 257.875 -135.660156 257.875 -127.265625 Z M 257.875 -41.578125 "/></g></g></g></svg>